<svg version="1.1" id="Layer_1" xmlns="http://www.w3.org/2000/svg" xmlns:xlink="http://www.w3.org/1999/xlink" x="0px" y="0px"
	 width="100%" viewBox="0 0 288 144" enable-background="new 0 0 288 144" xml:space="preserve">
<path fill="#000000" opacity="1.000000" stroke="none" 
	d="
M129.000000,145.000000 
	C121.979050,145.000000 114.958107,145.000000 107.326355,144.666428 
	C105.725220,138.815201 102.094780,136.149933 96.860260,135.243942 
	C94.902100,134.905014 92.924355,134.675522 90.971191,134.312042 
	C83.506439,132.922897 79.224831,133.326782 82.584969,123.739578 
	C82.744263,123.285088 82.679077,122.751244 82.714333,122.254066 
	C82.925980,119.268700 81.636574,118.184242 78.802803,119.283821 
	C69.141129,123.032845 59.277863,122.739449 49.396534,120.570465 
	C39.832024,118.471031 33.445839,123.829605 27.675953,129.934662 
	C23.704206,134.137146 27.147806,138.976990 27.965864,143.515488 
	C28.052610,143.996735 27.992163,144.504517 28.000000,145.000000 
	C21.978848,145.000000 15.957696,145.000000 9.543686,144.619965 
	C9.760892,140.502304 10.967440,136.814026 9.141391,133.015915 
	C8.026599,130.697189 9.156232,128.834641 11.085118,127.409737 
	C16.226921,123.611389 20.541824,118.931114 24.359613,113.899681 
	C29.705576,106.854301 36.085812,103.284851 45.765987,106.446220 
	C46.244831,106.777367 44.224346,108.662239 46.550423,109.489914 
	C55.680187,104.574059 65.110626,99.722038 69.993668,89.291946 
	C71.752739,85.534607 74.293747,82.145523 76.083839,78.400047 
	C79.610008,71.022156 85.987526,68.465523 93.445236,67.646828 
	C96.230095,67.341110 98.973648,67.117325 101.405067,65.758751 
	C101.128510,63.486790 97.960960,64.679977 98.100433,61.899029 
	C102.499580,60.351192 107.080154,58.739521 112.088913,56.977192 
	C109.510376,55.601830 106.452713,57.824738 104.823021,54.211712 
	C119.787704,50.826229 132.272110,42.677227 145.464890,36.044434 
	C149.321243,34.105610 153.474899,32.902626 157.868042,32.445293 
	C162.224335,31.991798 166.473587,30.894144 170.128769,27.705366 
	C168.059509,26.754408 165.816086,28.524263 163.703857,25.959766 
	C173.411362,21.163729 185.153137,21.429935 192.371384,12.595398 
	C188.115341,10.748788 184.117142,11.006415 179.284683,13.968770 
	C172.186417,18.320086 165.245377,22.927141 158.185104,27.341717 
	C156.332672,28.499998 154.529907,30.164984 151.962769,29.557232 
	C151.777847,28.013004 152.598312,27.455387 153.413284,26.870037 
	C160.312393,21.914776 167.356598,17.146212 174.066681,11.946618 
	C184.965652,3.501086 196.029007,3.628117 207.478958,10.535834 
	C210.043915,12.083274 212.519638,13.980172 215.557693,14.351187 
	C222.847870,15.241478 228.541748,19.238712 234.160782,23.463114 
	C235.884399,24.758938 237.463547,26.507994 239.410400,27.195066 
	C244.484085,28.985630 247.638153,32.576511 250.275208,36.993931 
	C253.170609,41.844082 255.734482,47.133358 260.535278,50.366005 
	C265.484924,53.698891 267.966492,58.233871 269.205017,63.809082 
	C269.846558,66.697060 270.097931,69.964424 272.635376,71.886040 
	C276.390411,74.729736 276.816895,78.480904 276.280823,82.615906 
	C274.788452,94.127495 277.757751,97.982796 289.000000,99.000000 
	C289.000000,100.388893 289.000000,101.777779 288.546448,103.600906 
	C276.866943,105.845116 269.754395,100.590897 265.775391,89.826370 
	C260.852020,93.803772 256.479431,96.650444 251.149780,98.445801 
	C247.454041,99.690758 243.331146,102.302933 240.800949,105.908989 
	C237.520233,110.584633 231.836685,110.663383 229.251572,105.451981 
	C226.146118,99.191582 221.657486,92.876434 227.241898,85.589561 
	C227.908279,84.720024 227.770569,83.331688 226.805054,82.365982 
	C220.947372,82.246452 219.800613,83.355492 216.743607,89.167503 
	C214.513702,93.406960 217.841278,94.855324 219.829559,97.000862 
	C225.468826,103.086136 223.951202,111.886452 216.212433,114.955948 
	C210.037735,117.405067 204.818497,121.102394 199.789429,125.223663 
	C198.347992,126.404922 196.963669,127.722008 194.966019,127.439301 
	C192.191406,127.046631 190.234390,128.433411 188.210388,129.989120 
	C184.379501,132.933624 179.940125,134.229752 175.148956,134.178436 
	C173.256790,134.158173 170.797302,133.513321 171.703827,131.148514 
	C173.598953,126.204811 175.733154,121.234642 178.612946,116.826599 
	C180.651031,113.706940 184.193726,117.296310 187.034576,116.548843 
	C187.347687,116.466461 187.641479,116.310715 188.252686,116.064972 
	C186.882156,110.782616 190.435638,109.642914 194.553436,108.940926 
	C198.450287,108.276619 202.576080,108.042198 205.714554,104.089691 
	C200.259644,102.611168 195.120377,102.000801 191.475449,98.194206 
	C187.545074,94.089523 182.309464,93.681244 177.153366,92.790192 
	C183.134247,98.485680 193.004303,98.368896 198.156326,107.070724 
	C192.414444,107.805199 187.660873,109.817909 182.403580,109.433952 
	C180.777222,109.315170 178.884415,108.811951 177.626465,110.178078 
	C172.268463,115.996803 164.424545,118.626442 159.202271,124.548203 
	C153.735519,130.747192 147.149597,129.835220 140.347260,127.858688 
	C138.664047,127.369598 136.934311,126.267746 137.854980,124.289162 
	C139.531479,120.686249 141.529144,117.212616 143.646698,113.844666 
	C144.538925,112.425598 146.535812,112.236618 147.674881,113.304581 
	C151.202087,116.611595 153.314621,113.674294 155.682007,111.785851 
	C158.226578,109.756050 161.024124,107.826729 160.472824,103.161118 
	C153.855850,104.775208 147.600647,106.250343 141.384827,107.875977 
	C140.525681,108.100670 139.530792,108.918518 139.163437,109.720436 
	C137.497971,113.356064 134.337738,113.511047 131.118912,113.278534 
	C127.324593,113.004440 123.573143,112.355721 120.021240,110.161148 
	C118.539047,112.811874 117.283577,115.309898 115.798935,117.663368 
	C111.835663,123.945999 111.662292,124.101784 117.779503,128.651611 
	C123.456779,132.874222 127.985008,137.676086 129.000000,145.000000 
z"/>
<path fill="#000000" opacity="1.000000" stroke="none" 
	d="
M39.329567,48.507080 
	C34.761276,46.923527 30.490124,46.408268 26.209101,47.786179 
	C19.901537,49.816360 18.634804,54.830051 23.164688,59.613850 
	C26.060976,62.672489 29.857914,64.532013 33.223309,66.966934 
	C36.376766,69.248512 39.650784,71.567581 39.139801,76.072563 
	C38.584026,80.972443 34.914288,83.062325 30.897049,85.207535 
	C24.257477,88.753105 17.702307,91.610168 9.870987,90.578300 
	C6.876234,90.183716 6.285359,94.803810 3.192865,95.130165 
	C1.961643,90.385094 5.051549,85.028748 9.808795,83.628548 
	C13.035119,82.678947 16.370386,82.605362 19.710827,82.626701 
	C21.372614,82.637321 23.128933,82.844086 24.678377,82.395401 
	C28.144163,81.391785 32.432491,80.759132 33.306530,76.598404 
	C34.149696,72.584633 30.181486,71.166740 27.544367,69.302971 
	C24.288349,67.001778 20.668344,65.212036 17.817078,62.344177 
	C10.830937,55.317368 13.059985,45.313110 22.415289,42.012939 
	C28.801472,39.760151 35.177849,40.354542 41.517815,42.402855 
	C50.270229,45.230572 57.720936,49.943604 63.812103,56.927643 
	C69.708023,63.687813 72.112114,64.083511 80.399544,60.692245 
	C84.316933,59.089226 88.082100,56.778053 93.106934,57.777847 
	C90.902596,61.781483 87.222267,63.561028 83.802269,65.152901 
	C76.037964,68.766899 71.102005,74.508850 68.414223,82.539413 
	C66.486931,88.297791 63.183456,93.306435 58.878815,97.602547 
	C57.373962,99.104408 55.751881,100.529060 53.790695,101.068878 
	C52.839451,100.413826 52.724491,99.636711 53.198158,99.185608 
	C60.382183,92.344025 60.825809,82.386719 64.844635,74.089386 
	C65.467049,72.804352 65.354485,71.434380 64.386948,70.332008 
	C57.102661,62.032654 51.393192,51.933022 39.329567,48.507080 
z"/>
</svg>